<?xml version="1.0" encoding="UTF-8" standalone="no"?>
<svg
   xmlns:dc="http://purl.org/dc/elements/1.1/"
   xmlns:cc="http://creativecommons.org/ns#"
   xmlns:rdf="http://www.w3.org/1999/02/22-rdf-syntax-ns#"
   xmlns:svg="http://www.w3.org/2000/svg"
   xmlns="http://www.w3.org/2000/svg"
   xmlns:sodipodi="http://sodipodi.sourceforge.net/DTD/sodipodi-0.dtd"
   xmlns:inkscape="http://www.inkscape.org/namespaces/inkscape"
   height="120"
   width="120"
   version="1.1"
   x="0px"
   y="0px"
   viewBox="0 0 108 108"
   style="fill:#1a1a1a"
   xml:space="preserve"
   id="svg12"
   sodipodi:docname="logo.svg"
   inkscape:version="0.92.4 (5da689c313, 2019-01-14)"
   inkscape:export-filename="C:\code\Blake3.NET\img\logo.png"
   inkscape:export-xdpi="256"
   inkscape:export-ydpi="256"><metadata
   id="metadata18"><rdf:RDF><cc:Work
       rdf:about=""><dc:format>image/svg+xml</dc:format><dc:type
         rdf:resource="http://purl.org/dc/dcmitype/StillImage" /><dc:title /></cc:Work></rdf:RDF></metadata><defs
   id="defs16" /><sodipodi:namedview
   pagecolor="#ffffff"
   bordercolor="#666666"
   borderopacity="1"
   objecttolerance="10"
   gridtolerance="10"
   guidetolerance="10"
   inkscape:pageopacity="0"
   inkscape:pageshadow="2"
   inkscape:window-width="2890"
   inkscape:window-height="1778"
   id="namedview14"
   showgrid="false"
   inkscape:zoom="9.44"
   inkscape:cx="15.065622"
   inkscape:cy="66.85262"
   inkscape:window-x="0"
   inkscape:window-y="0"
   inkscape:window-maximized="0"
   inkscape:current-layer="svg12" /><g
   id="g10"
   transform="translate(7.1504237,-2.4025422)"><g
     id="g8"><g
       id="g6"><path
         d="m 74.45,38.87 h 8.37 c 0,2.8 -2.9,5.38 -7.78,7.44 -0.32,7.44 -3.34,14.17 -8.1,19.25 l 5.49,5.49 c -2.08,2.07999 -6.25,1.73 -11.5,-0.54 -2.96,1.85 -6.27,3.21 -9.8,3.93999 v 8.37 c -2.8,0 -5.38,-2.9 -7.44,-7.78 -5.36,-0.23 -10.34,-1.86 -14.62,-4.53 -5.25,2.27 -9.42,2.62 -11.5,0.54 L 23.06,65.56 C 18.3,60.48 15.28,53.75 14.96,46.31 10.08,44.25 7.18,41.67 7.18,38.87 h 8.37 c 0.73,-3.53 2.09,-6.84 3.94,-9.8 -2.27,-5.25 -2.62,-9.42 -0.54,-11.5 l 5.49,5.49 c 5.08,-4.76 11.81,-7.78 19.25,-8.1 2.06,-4.88 4.64,-7.78 7.44,-7.78 v 8.37 c 5.52,1.14 10.47,3.8 14.43,7.51 l 5.49,-5.49 c 2.07999,2.08 1.73,6.25 -0.54,11.51 1.85,2.95 3.21,6.26 3.94,9.79 z M 61.75,45 c 0,-9.25 -7.5,-16.75 -16.75,-16.75 -9.25,0 -16.75,7.5 -16.75,16.75 0,9.25 7.5,16.75 16.75,16.75 9.25,0 16.75,-7.5 16.75,-16.75 z"
         id="path2"
         inkscape:connector-curvature="0" /><path
         d="m 54.05,44.61 0.54,1.15 c -0.18,0.03 -0.37,0.06 -0.57,0.09 -0.07,0.78 -0.24,1.53 -0.5,2.24 l 0.06,1.27 c -0.18,-0.04 -0.37,-0.09 -0.56,-0.14 -0.37,0.7 -0.82,1.33 -1.35,1.91 l -0.42,1.18 c -0.15,-0.11 -0.31,-0.22 -0.47,-0.34 -0.59,0.5 -1.26,0.92 -1.97,1.25 l -0.85,0.92 c -0.09,-0.15 -0.19,-0.31 -0.29,-0.48 -0.73,0.22 -1.49,0.36 -2.28,0.39 l -1.15,0.54 c -0.03,-0.18 -0.06,-0.37 -0.09,-0.57 -0.78,-0.07 -1.53,-0.25 -2.24,-0.5 l -1.27,0.05 c 0.04,-0.17 0.08,-0.36 0.13,-0.56 -0.68,-0.36 -1.3,-0.8 -1.87,-1.31 l -1.21,-0.44 c 0.11,-0.15 0.22,-0.31 0.34,-0.47 -0.48,-0.59 -0.9,-1.23 -1.22,-1.93 L 35.85,48 c 0.16,-0.1 0.32,-0.2 0.5,-0.31 -0.23,-0.72 -0.36,-1.48 -0.4,-2.27 l -0.54,-1.15 c 0.18,-0.04 0.37,-0.07 0.57,-0.1 0.07,-0.79 0.24,-1.55 0.5,-2.26 l -0.05,-1.27 c 0.17,0.04 0.36,0.08 0.56,0.13 0.36,-0.68 0.8,-1.3 1.31,-1.87 l 0.44,-1.21 c 0.15,0.11 0.31,0.22 0.47,0.34 0.58,-0.48 1.23,-0.9 1.93,-1.23 L 42,35.85 c 0.1,0.16 0.2,0.32 0.31,0.5 0.72,-0.23 1.48,-0.36 2.27,-0.4 l 1.15,-0.54 c 0.04,0.18 0.07,0.37 0.1,0.57 0.79,0.07 1.55,0.24 2.26,0.5 l 1.27,-0.06 c -0.04,0.18 -0.09,0.37 -0.14,0.56 0.7,0.37 1.34,0.82 1.91,1.35 l 1.18,0.42 c -0.11,0.15 -0.22,0.31 -0.34,0.47 0.5,0.59 0.92,1.26 1.25,1.97 l 0.93,0.85 c -0.16,0.09 -0.32,0.19 -0.49,0.29 0.22,0.73 0.36,1.49 0.39,2.28 z M 48.67,45 c 0,-2.03 -1.64,-3.67 -3.67,-3.67 -2.03,0 -3.67,1.64 -3.67,3.67 0,2.03 1.64,3.67 3.67,3.67 2.03,0 3.67,-1.64 3.67,-3.67 z"
         id="path4"
         inkscape:connector-curvature="0"
         style="fill:#a80016;fill-opacity:1" /><path
         style="fill:#a80016;fill-opacity:1"
         inkscape:connector-curvature="0"
         id="path828"
         d="m 54.05,44.61 0.54,1.15 c -0.18,0.03 -0.37,0.06 -0.57,0.09 -0.07,0.78 -0.24,1.53 -0.5,2.24 l 0.06,1.27 c -0.18,-0.04 -0.37,-0.09 -0.56,-0.14 -0.37,0.7 -0.82,1.33 -1.35,1.91 l -0.42,1.18 c -0.15,-0.11 -0.31,-0.22 -0.47,-0.34 -0.59,0.5 -1.26,0.92 -1.97,1.25 l -0.85,0.92 c -0.09,-0.15 -0.19,-0.31 -0.29,-0.48 -0.73,0.22 -1.49,0.36 -2.28,0.39 l -1.15,0.54 c -0.03,-0.18 -0.06,-0.37 -0.09,-0.57 -0.78,-0.07 -1.53,-0.25 -2.24,-0.5 l -1.27,0.05 c 0.04,-0.17 0.08,-0.36 0.13,-0.56 -0.68,-0.36 -1.3,-0.8 -1.87,-1.31 l -1.21,-0.44 c 0.11,-0.15 0.22,-0.31 0.34,-0.47 -0.48,-0.59 -0.9,-1.23 -1.22,-1.93 L 35.85,48 c 0.16,-0.1 0.32,-0.2 0.5,-0.31 -0.23,-0.72 -0.36,-1.48 -0.4,-2.27 l -0.54,-1.15 c 0.18,-0.04 0.37,-0.07 0.57,-0.1 0.07,-0.79 0.24,-1.55 0.5,-2.26 l -0.05,-1.27 c 0.17,0.04 0.36,0.08 0.56,0.13 0.36,-0.68 0.8,-1.3 1.31,-1.87 l 0.44,-1.21 c 0.15,0.11 0.31,0.22 0.47,0.34 0.58,-0.48 1.23,-0.9 1.93,-1.23 L 42,35.85 c 0.1,0.16 0.2,0.32 0.31,0.5 0.72,-0.23 1.48,-0.36 2.27,-0.4 l 1.15,-0.54 c 0.04,0.18 0.07,0.37 0.1,0.57 0.79,0.07 1.55,0.24 2.26,0.5 l 1.27,-0.06 c -0.04,0.18 -0.09,0.37 -0.14,0.56 0.7,0.37 1.34,0.82 1.91,1.35 l 1.18,0.42 c -0.11,0.15 -0.22,0.31 -0.34,0.47 0.5,0.59 0.92,1.26 1.25,1.97 l 0.93,0.85 c -0.16,0.09 -0.32,0.19 -0.49,0.29 0.22,0.73 0.36,1.49 0.39,2.28 z M 48.67,45 c 0,-2.03 -1.64,-3.67 -3.67,-3.67 -2.03,0 -3.67,1.64 -3.67,3.67 0,2.03 1.64,3.67 3.67,3.67 2.03,0 3.67,-1.64 3.67,-3.67 z" /></g></g></g><g
   transform="matrix(1.434687,0,0,1.434687,-29.707666,-76.590883)"
   aria-label="BLAKE3"
   style="font-style:normal;font-weight:normal;font-size:10.58333302px;line-height:1.25;font-family:sans-serif;letter-spacing:0px;word-spacing:0px;fill:#000000;fill-opacity:1;stroke:none;stroke-width:0.26458332"
   id="text868"><path
     d="m 28.176921,113.52518 q 0.635,0 1.0795,0.14817 0.455084,0.13758 0.740834,0.40216 0.296333,0.254 0.433916,0.61384 0.137584,0.35983 0.137584,0.79375 0,0.62441 -0.264584,1.00541 -0.254,0.381 -0.762,0.58209 0.508,0.21166 0.783167,0.61383 0.275167,0.39158 0.275167,1.016 0,0.43392 -0.137584,0.79375 -0.137583,0.35983 -0.433916,0.62442 -0.28575,0.254 -0.740834,0.40216 -0.4445,0.14817 -1.0795,0.14817 h -3.174999 q -0.592667,0 -0.592667,-0.58208 v -5.97959 q 0,-0.58208 0.592667,-0.58208 z m -2.508249,5.78908 q 0,0.11642 0.137583,0.11642 h 2.434166 q 0.5715,0 0.836084,-0.24342 0.264583,-0.24341 0.264583,-0.68791 0,-0.92075 -1.100667,-0.92075 h -2.571749 z m 0,-2.77283 h 2.539999 q 1.100667,0 1.100667,-0.85725 0,-0.42333 -0.264583,-0.67733 -0.254,-0.254 -0.8255,-0.254 h -2.413 q -0.137583,0 -0.137583,0.127 z"
     style="font-style:normal;font-variant:normal;font-weight:normal;font-stretch:normal;font-family:Nasalization;-inkscape-font-specification:Nasalization;stroke-width:0.26458332"
     id="path814"
     inkscape:connector-curvature="0" /><path
     d="m 33.22517,113.52518 v 4.66725 q 0,0.254 0.0635,0.48683 0.07408,0.22225 0.243417,0.39159 0.169333,0.15875 0.4445,0.254 0.28575,0.0953 0.709083,0.0953 h 2.772833 v 1.24883 h -2.846916 q -0.709084,0 -1.217084,-0.17992 -0.497416,-0.1905 -0.814916,-0.51858 -0.3175,-0.32808 -0.465667,-0.77258 -0.137583,-0.45509 -0.137583,-0.99484 v -4.67783 z"
     style="font-style:normal;font-variant:normal;font-weight:normal;font-stretch:normal;font-family:Nasalization;-inkscape-font-specification:Nasalization;stroke-width:0.26458332"
     id="path816"
     inkscape:connector-curvature="0" /><path
     d="M 39.342334,120.66893 H 37.9665 l 2.50825,-6.35 q 0.201084,-0.508 0.560917,-0.70908 0.370417,-0.21167 0.941917,-0.21167 0.560916,0 0.92075,0.21167 0.370416,0.20108 0.560916,0.70908 l 2.413,6.35 h -1.386416 l -2.169584,-5.74675 q -0.09525,-0.24342 -0.34925,-0.24342 -0.254,0 -0.359833,0.24342 z"
     style="font-style:normal;font-variant:normal;font-weight:normal;font-stretch:normal;font-family:Nasalization;-inkscape-font-specification:Nasalization;stroke-width:0.26458332"
     id="path818"
     inkscape:connector-curvature="0" /><path
     d="m 48.179401,113.52518 v 3.02683 h 0.687917 q 0.455083,0 0.740833,-0.0212 0.296333,-0.0318 0.486833,-0.127 0.1905,-0.0953 0.3175,-0.26459 0.137584,-0.17991 0.28575,-0.47625 l 1.090084,-2.13783 h 1.344083 l -1.121833,2.2225 q -0.243417,0.47625 -0.518584,0.79375 -0.275166,0.3175 -0.719666,0.508 0.254,0.0635 0.4445,0.17992 0.1905,0.10583 0.34925,0.27516 0.169333,0.15875 0.3175,0.39159 0.148166,0.22225 0.306916,0.52916 l 1.153584,2.24367 h -1.397 l -1.090084,-2.11667 q -0.148166,-0.28575 -0.28575,-0.45508 -0.137583,-0.16933 -0.34925,-0.26458 -0.211666,-0.0952 -0.529166,-0.11642 -0.3175,-0.0317 -0.8255,-0.0317 h -0.687917 v 2.9845 h -1.248833 v -7.14375 z"
     style="font-style:normal;font-variant:normal;font-weight:normal;font-stretch:normal;font-family:Nasalization;-inkscape-font-specification:Nasalization;stroke-width:0.26458332"
     id="path820"
     inkscape:connector-curvature="0" /><path
     d="m 60.127965,113.52518 v 1.24883 h -3.577166 q -0.5715,0 -0.8255,0.24342 -0.254,0.24342 -0.254,0.65617 0,0.84666 1.090083,0.84666 h 3.513667 v 1.13242 h -3.545417 q -1.090083,0 -1.090083,0.86783 0,0.42334 0.264583,0.66675 0.264583,0.23284 0.814917,0.23284 h 3.6195 v 1.24883 h -3.6195 q -0.635,0 -1.090083,-0.14817 -0.4445,-0.14816 -0.740834,-0.40216 -0.28575,-0.26459 -0.423333,-0.62442 -0.127,-0.35983 -0.127,-0.77258 0,-0.61384 0.264583,-1.016 0.264584,-0.41275 0.762,-0.62442 -1.005416,-0.41275 -1.005416,-1.60867 0,-0.42333 0.137583,-0.78316 0.137583,-0.35984 0.423333,-0.61384 0.296334,-0.26458 0.740834,-0.40216 0.455083,-0.14817 1.090083,-0.14817 z"
     style="font-style:normal;font-variant:normal;font-weight:normal;font-stretch:normal;font-family:Nasalization;-inkscape-font-specification:Nasalization;stroke-width:0.26458332"
     id="path822"
     inkscape:connector-curvature="0" /><path
     d="m 65.091539,113.52518 q 0.635,0 1.0795,0.14817 0.455083,0.13758 0.740833,0.40216 0.296333,0.254 0.433917,0.60325 0.137583,0.34925 0.137583,0.762 0,0.635 -0.264583,1.03717 -0.254,0.39158 -0.751417,0.60325 0.508,0.21167 0.772583,0.62442 0.264584,0.40216 0.264584,1.04775 0,0.40216 -0.137584,0.75141 -0.137583,0.34925 -0.423333,0.61384 -0.28575,0.254 -0.740833,0.40216 -0.4445,0.14817 -1.0795,0.14817 h -3.608917 v -1.24883 h 3.608917 q 0.550333,0 0.814916,-0.23284 0.264584,-0.24341 0.264584,-0.67733 0,-0.85725 -1.090084,-0.85725 h -2.201333 v -1.13242 h 2.169583 q 0.550334,0 0.814917,-0.20108 0.275167,-0.21167 0.275167,-0.65617 0,-0.40216 -0.254,-0.64558 -0.254,-0.24342 -0.8255,-0.24342 h -3.566583 v -1.24883 z"
     style="font-style:normal;font-variant:normal;font-weight:normal;font-stretch:normal;font-family:Nasalization;-inkscape-font-specification:Nasalization;stroke-width:0.26458332"
     id="path824"
     inkscape:connector-curvature="0" /></g><g
   id="g860"
   style="font-style:normal;font-weight:normal;font-size:10.58333302px;line-height:1.25;font-family:sans-serif;letter-spacing:0px;word-spacing:0px;fill:#000000;fill-opacity:1;stroke:none;stroke-width:0.26458332"
   aria-label="BLAKE3"
   transform="matrix(1.434687,0,0,1.434687,-29.707666,-76.590883)"><path
     inkscape:connector-curvature="0"
     id="path848"
     style="font-style:normal;font-variant:normal;font-weight:normal;font-stretch:normal;font-family:Nasalization;-inkscape-font-specification:Nasalization;stroke-width:0.26458332"
     d="m 28.176921,113.52518 q 0.635,0 1.0795,0.14817 0.455084,0.13758 0.740834,0.40216 0.296333,0.254 0.433916,0.61384 0.137584,0.35983 0.137584,0.79375 0,0.62441 -0.264584,1.00541 -0.254,0.381 -0.762,0.58209 0.508,0.21166 0.783167,0.61383 0.275167,0.39158 0.275167,1.016 0,0.43392 -0.137584,0.79375 -0.137583,0.35983 -0.433916,0.62442 -0.28575,0.254 -0.740834,0.40216 -0.4445,0.14817 -1.0795,0.14817 h -3.174999 q -0.592667,0 -0.592667,-0.58208 v -5.97959 q 0,-0.58208 0.592667,-0.58208 z m -2.508249,5.78908 q 0,0.11642 0.137583,0.11642 h 2.434166 q 0.5715,0 0.836084,-0.24342 0.264583,-0.24341 0.264583,-0.68791 0,-0.92075 -1.100667,-0.92075 h -2.571749 z m 0,-2.77283 h 2.539999 q 1.100667,0 1.100667,-0.85725 0,-0.42333 -0.264583,-0.67733 -0.254,-0.254 -0.8255,-0.254 h -2.413 q -0.137583,0 -0.137583,0.127 z" /><path
     inkscape:connector-curvature="0"
     id="path850"
     style="font-style:normal;font-variant:normal;font-weight:normal;font-stretch:normal;font-family:Nasalization;-inkscape-font-specification:Nasalization;stroke-width:0.26458332"
     d="m 33.22517,113.52518 v 4.66725 q 0,0.254 0.0635,0.48683 0.07408,0.22225 0.243417,0.39159 0.169333,0.15875 0.4445,0.254 0.28575,0.0953 0.709083,0.0953 h 2.772833 v 1.24883 h -2.846916 q -0.709084,0 -1.217084,-0.17992 -0.497416,-0.1905 -0.814916,-0.51858 -0.3175,-0.32808 -0.465667,-0.77258 -0.137583,-0.45509 -0.137583,-0.99484 v -4.67783 z" /><path
     inkscape:connector-curvature="0"
     id="path852"
     style="font-style:normal;font-variant:normal;font-weight:normal;font-stretch:normal;font-family:Nasalization;-inkscape-font-specification:Nasalization;stroke-width:0.26458332"
     d="M 39.342334,120.66893 H 37.9665 l 2.50825,-6.35 q 0.201084,-0.508 0.560917,-0.70908 0.370417,-0.21167 0.941917,-0.21167 0.560916,0 0.92075,0.21167 0.370416,0.20108 0.560916,0.70908 l 2.413,6.35 h -1.386416 l -2.169584,-5.74675 q -0.09525,-0.24342 -0.34925,-0.24342 -0.254,0 -0.359833,0.24342 z" /><path
     inkscape:connector-curvature="0"
     id="path854"
     style="font-style:normal;font-variant:normal;font-weight:normal;font-stretch:normal;font-family:Nasalization;-inkscape-font-specification:Nasalization;stroke-width:0.26458332"
     d="m 48.179401,113.52518 v 3.02683 h 0.687917 q 0.455083,0 0.740833,-0.0212 0.296333,-0.0318 0.486833,-0.127 0.1905,-0.0953 0.3175,-0.26459 0.137584,-0.17991 0.28575,-0.47625 l 1.090084,-2.13783 h 1.344083 l -1.121833,2.2225 q -0.243417,0.47625 -0.518584,0.79375 -0.275166,0.3175 -0.719666,0.508 0.254,0.0635 0.4445,0.17992 0.1905,0.10583 0.34925,0.27516 0.169333,0.15875 0.3175,0.39159 0.148166,0.22225 0.306916,0.52916 l 1.153584,2.24367 h -1.397 l -1.090084,-2.11667 q -0.148166,-0.28575 -0.28575,-0.45508 -0.137583,-0.16933 -0.34925,-0.26458 -0.211666,-0.0952 -0.529166,-0.11642 -0.3175,-0.0317 -0.8255,-0.0317 h -0.687917 v 2.9845 h -1.248833 v -7.14375 z" /><path
     inkscape:connector-curvature="0"
     id="path856"
     style="font-style:normal;font-variant:normal;font-weight:normal;font-stretch:normal;font-family:Nasalization;-inkscape-font-specification:Nasalization;stroke-width:0.26458332"
     d="m 60.127965,113.52518 v 1.24883 h -3.577166 q -0.5715,0 -0.8255,0.24342 -0.254,0.24342 -0.254,0.65617 0,0.84666 1.090083,0.84666 h 3.513667 v 1.13242 h -3.545417 q -1.090083,0 -1.090083,0.86783 0,0.42334 0.264583,0.66675 0.264583,0.23284 0.814917,0.23284 h 3.6195 v 1.24883 h -3.6195 q -0.635,0 -1.090083,-0.14817 -0.4445,-0.14816 -0.740834,-0.40216 -0.28575,-0.26459 -0.423333,-0.62442 -0.127,-0.35983 -0.127,-0.77258 0,-0.61384 0.264583,-1.016 0.264584,-0.41275 0.762,-0.62442 -1.005416,-0.41275 -1.005416,-1.60867 0,-0.42333 0.137583,-0.78316 0.137583,-0.35984 0.423333,-0.61384 0.296334,-0.26458 0.740834,-0.40216 0.455083,-0.14817 1.090083,-0.14817 z" /><path
     inkscape:connector-curvature="0"
     id="path858"
     style="font-style:normal;font-variant:normal;font-weight:normal;font-stretch:normal;font-family:Nasalization;-inkscape-font-specification:Nasalization;stroke-width:0.26458332"
     d="m 65.091539,113.52518 q 0.635,0 1.0795,0.14817 0.455083,0.13758 0.740833,0.40216 0.296333,0.254 0.433917,0.60325 0.137583,0.34925 0.137583,0.762 0,0.635 -0.264583,1.03717 -0.254,0.39158 -0.751417,0.60325 0.508,0.21167 0.772583,0.62442 0.264584,0.40216 0.264584,1.04775 0,0.40216 -0.137584,0.75141 -0.137583,0.34925 -0.423333,0.61384 -0.28575,0.254 -0.740833,0.40216 -0.4445,0.14817 -1.0795,0.14817 h -3.608917 v -1.24883 h 3.608917 q 0.550333,0 0.814916,-0.23284 0.264584,-0.24341 0.264584,-0.67733 0,-0.85725 -1.090084,-0.85725 h -2.201333 v -1.13242 h 2.169583 q 0.550334,0 0.814917,-0.20108 0.275167,-0.21167 0.275167,-0.65617 0,-0.40216 -0.254,-0.64558 -0.254,-0.24342 -0.8255,-0.24342 h -3.566583 v -1.24883 z" /></g><text
   xml:space="preserve"
   style="font-style:normal;font-variant:normal;font-weight:bold;font-stretch:normal;font-size:21.6px;line-height:22.5px;font-family:'Fira Code';-inkscape-font-specification:'Fira Code Bold';letter-spacing:0px;word-spacing:0px;fill:#000000;fill-opacity:1;stroke:none;stroke-width:0.89999998;"
   x="74.078384"
   y="94.17585"
   id="text864"><tspan
     sodipodi:role="line"
     id="tspan862"
     x="74.078384"
     y="119.82585"
     style="stroke-width:0.89999998;font-size:21.6px;" /></text>

<text
   xml:space="preserve"
   style="font-style:normal;font-variant:normal;font-weight:normal;font-stretch:normal;font-size:14.4px;line-height:22.5px;font-family:'Fira Code';-inkscape-font-specification:'Fira Code';letter-spacing:0px;word-spacing:0px;fill:#000000;fill-opacity:1;stroke:none;stroke-width:0.89999998;"
   x="73.792374"
   y="98.08474"
   id="text869"><tspan
     sodipodi:role="line"
     id="tspan866"
     x="73.792374"
     y="114.73474"
     style="stroke-width:0.89999998;-inkscape-font-specification:'Fira Code';font-family:'Fira Code';font-weight:normal;font-style:normal;font-stretch:normal;font-variant:normal;font-size:14.4px;" /></text>

<text
   xml:space="preserve"
   style="font-style:normal;font-variant:normal;font-weight:normal;font-stretch:normal;font-size:14.4px;line-height:22.5px;font-family:'Fira Code';-inkscape-font-specification:'Fira Code';letter-spacing:0px;word-spacing:0px;fill:#000000;fill-opacity:1;stroke:none;stroke-width:0.89999998;"
   x="73.6017"
   y="97.322029"
   id="text873"><tspan
     sodipodi:role="line"
     id="tspan871"
     x="73.6017"
     y="113.97203"
     style="stroke-width:0.89999998;font-size:14.4px;-inkscape-font-specification:'Fira Code';font-family:'Fira Code';font-weight:normal;font-style:normal;font-stretch:normal;font-variant:normal;" /></text>

<text
   xml:space="preserve"
   style="font-style:normal;font-variant:normal;font-weight:normal;font-stretch:normal;font-size:14.39999962px;line-height:22.5px;font-family:Arial;-inkscape-font-specification:Arial;letter-spacing:0px;word-spacing:0px;fill:#000000;fill-opacity:1;stroke:none;stroke-width:0.89999998;"
   x="74.173729"
   y="97.703384"
   id="text877"><tspan
     sodipodi:role="line"
     id="tspan875"
     x="74.173729"
     y="112.55338"
     style="stroke-width:0.89999998;-inkscape-font-specification:Arial;font-family:Arial;font-weight:normal;font-style:normal;font-stretch:normal;font-variant:normal;" /></text>

<text
   xml:space="preserve"
   style="font-style:normal;font-variant:normal;font-weight:normal;font-stretch:normal;font-size:14.39999962px;line-height:22.5px;font-family:Arial;-inkscape-font-specification:Arial;letter-spacing:0px;word-spacing:0px;fill:#a80016;fill-opacity:1;stroke:none;stroke-width:0.89999998;"
   x="76.271187"
   y="95.796616"
   id="text881"><tspan
     sodipodi:role="line"
     id="tspan879"
     x="76.271187"
     y="111.01748"
     style="stroke-width:0.89999998;fill:#a80016;fill-opacity:1;" /></text>

<text
   xml:space="preserve"
   style="font-style:normal;font-variant:normal;font-weight:normal;font-stretch:normal;font-size:14.39999962px;line-height:22.5px;font-family:Arial;-inkscape-font-specification:Arial;letter-spacing:0px;word-spacing:0px;fill:#a80016;fill-opacity:1;stroke:none;stroke-width:0.89999998;"
   x="72.171616"
   y="97.036026"
   id="text885"><tspan
     sodipodi:role="line"
     id="tspan883"
     x="72.171616"
     y="112.25689"
     style="stroke-width:0.89999998;fill:#a80016;fill-opacity:1;" /></text>

<text
   xml:space="preserve"
   style="font-style:normal;font-variant:normal;font-weight:normal;font-stretch:normal;font-size:14.39999962px;line-height:22.5px;font-family:Arial;-inkscape-font-specification:Arial;letter-spacing:0px;word-spacing:0px;fill:#a80016;fill-opacity:1;stroke:none;stroke-width:0.89999998"
   x="71.671982"
   y="96.480339"
   id="text889"><tspan
     sodipodi:role="line"
     id="tspan887"
     x="71.671982"
     y="96.480339"
     style="fill:#a80016;fill-opacity:1;stroke-width:0.89999998;-inkscape-font-specification:'Arial Bold';font-family:Arial;font-weight:bold;font-style:normal;font-stretch:normal;font-variant:normal">.NET</tspan></text>

</svg>